<svg width="273" height="293" viewBox="0 0 273 293" fill="none" xmlns="http://www.w3.org/2000/svg">
<path d="M14.0647 224.32V214.929L25.2194 229.485H28.1293V210.703L35.4042 205.538V235.589L41.709 237.937V200.373L48.0139 196.147V243.572L54.3187 247.798V191.921L56.7436 189.574L64.0185 183V264.232H66.4434V271.745H68.8684V281.136H76.1432V291.466H14.0647V281.136H25.2194V266.58L10.1848 254.841L1.93995 250.145L0 243.572V236.528L1.93995 235.589L5.81986 243.572L28.1293 260.945V250.145L35.4042 252.493V281.136H41.709V260.945L48.0139 268.458V281.136H54.3187V277.849V268.458L44.1339 252.493L23.2794 237.937L14.0647 224.32Z" fill="#F8F8F8"/>
<path d="M235.079 225.32V215.929L223.924 230.485H221.014V211.703L213.739 206.538V236.589L207.434 238.937V201.373L201.129 197.147V244.572L194.824 248.798V192.921L192.4 190.574L185.125 184V265.232H182.7V272.745H180.275V282.136H173V292.466H235.079V282.136H223.924V267.58L238.958 255.841L247.203 251.145L249.143 244.572V237.528L247.203 236.589L243.323 244.572L221.014 261.945V251.145L213.739 253.493V282.136H207.434V261.945L201.129 269.458V282.136H194.824V278.849V269.458L205.009 253.493L225.864 238.937L235.079 225.32Z" fill="#F8F8F8"/>
<path d="M238 140V130.12L228.897 125.18H218.187V101.098C205.08 57.4072 188.277 39.046 162.497 27C201.804 62.7195 201.516 79.3311 210.155 110.361V125.18H203.194V110.361C197.296 81.0788 172.671 52.9344 165.174 47.3771H159.284L165.174 55.4044C183.449 73.7935 189.687 85.98 195.161 110.361V125.18H188.735V110.361C178.866 85.6854 171.742 75.4864 155 66.5191C168.35 83.227 173.624 93.8368 180.703 114.066V125.18H177.49L167.852 130.12V140H238Z" fill="#F8F8F8"/>
<path d="M16 140V130.12L25.1032 125.18H35.8129V101.098C48.9204 57.4072 65.7232 39.046 91.5032 27C52.1956 62.7195 52.4843 79.3311 43.8452 110.361V125.18H50.8065V110.361C56.704 81.0788 81.329 52.9344 88.8258 47.3771H94.7161L88.8258 55.4044C70.5508 73.7935 64.3134 85.98 58.8387 110.361V125.18H65.2645V110.361C75.1337 85.6854 82.2579 75.4864 99 66.5191C85.6496 83.227 80.3764 93.8368 73.2968 114.066V125.18H76.5097L86.1484 130.12V140H16Z" fill="#F8F8F8"/>
<path d="M106 24.4444C117.647 18.2455 121.754 12.4417 126.909 0C130.457 16.9974 135.521 20.8064 146 24.4444C132.426 33.3336 128.731 39.0176 126.909 50C122.94 37.3189 118.954 31.3455 106 24.4444Z" fill="#F8F8F8"/>
<path d="M148.947 8.34582C153.466 6.48296 155.059 4.73887 157.059 1C158.436 6.10792 160.401 7.25254 164.467 8.34582C159.2 11.0171 157.766 12.7252 157.059 16.0255C155.519 12.2147 153.973 10.4197 148.947 8.34582Z" fill="#F8F8F8"/>
<path d="M96.5681 183.055C99.3924 181.89 100.388 180.8 101.638 178.464C102.499 181.656 103.727 182.371 106.268 183.055C102.976 184.724 102.08 185.792 101.638 187.855C100.676 185.473 99.7093 184.351 96.5681 183.055Z" fill="#F8F8F8"/>
<path d="M10.5947 181.102C14.8707 185.719 17.7369 186.888 23.2705 187.701C17.4825 191.504 16.8996 194.337 17.287 199.66C11.6786 194.491 8.92642 193.498 4.49827 194.046C8.59525 190.595 10.171 187.988 10.5947 181.102Z" fill="#F8F8F8"/>
<path d="M36.3472 180.176C36.0103 180.059 35.2852 180 34.1719 180H22.8779C22.1162 180 21.5083 179.883 21.0542 179.648C20.6001 179.399 20.373 178.953 20.373 178.308C20.373 177.839 20.4829 177.466 20.7026 177.188C21.2593 177.334 21.7939 177.407 22.3066 177.407C22.8193 177.407 23.2222 177.356 23.5151 177.253C23.8081 177.136 24.0645 176.938 24.2842 176.66C24.7236 176.074 24.9434 175.1 24.9434 173.738V151.677C24.9434 150.315 24.1377 149.465 22.5264 149.128C21.5156 148.923 20.8564 148.689 20.5488 148.425C20.2412 148.162 20.0874 147.876 20.0874 147.568C20.0874 146.895 20.2046 146.44 20.439 146.206C20.7026 146.279 20.9443 146.316 21.1641 146.316H26.6133L34.4355 146.096C41.291 146.096 45.627 147.964 47.4434 151.699C48.1025 153.047 48.4321 154.395 48.4321 155.742C48.4321 157.09 48.3369 158.24 48.1465 159.192C47.9561 160.144 47.6265 161.074 47.1577 161.982C46.7036 162.876 46.0957 163.726 45.334 164.531C44.5723 165.322 43.6201 166.018 42.4775 166.619C40.002 167.908 36.8379 168.552 32.9854 168.552H32.1504C31.7402 168.552 31.5352 168.289 31.5352 167.761C31.5352 166.604 31.8501 165.952 32.48 165.806C37.9878 165.923 41.3203 164.282 42.4775 160.884C42.8291 159.814 43.0049 158.672 43.0049 157.456C43.0049 156.24 42.873 155.127 42.6094 154.116C42.3457 153.091 41.8696 152.183 41.1812 151.392C39.6577 149.663 37.1382 148.799 33.6226 148.799C32.2017 148.799 31.2568 149.106 30.7881 149.722C30.3486 150.264 30.1289 151.362 30.1289 153.018V174.968C30.2021 176.111 31.1104 176.807 32.8535 177.056C34.4209 177.275 35.395 177.48 35.7759 177.671C36.1567 177.861 36.4058 178.052 36.5229 178.242C36.6401 178.418 36.6987 178.638 36.6987 178.901C36.6987 179.458 36.5815 179.883 36.3472 180.176ZM72.7998 177.407C73.415 177.51 73.8765 177.561 74.1841 177.561C74.4917 177.561 74.792 177.532 75.085 177.473C75.3926 177.4 75.6636 177.29 75.8979 177.144C76.4253 176.821 76.689 176.316 76.689 175.627C76.689 175.056 76.5132 174.419 76.1616 173.716L74.0962 168.596H60.1875L57.7266 174.836C57.4922 175.408 57.375 175.825 57.375 176.089C57.375 176.338 57.4116 176.528 57.4849 176.66C57.5728 176.777 57.6973 176.88 57.8584 176.968C58.0342 177.056 58.2466 177.129 58.4956 177.188L59.3965 177.429C60.3633 177.59 60.9858 177.737 61.2642 177.869C61.8354 178.147 62.1211 178.557 62.1211 179.099C62.1211 179.495 62.0112 179.832 61.7915 180.11C61.5132 180.037 61.2568 180 61.0225 180H52.0796C50.1313 180 49.1572 179.465 49.1572 178.396C49.1572 177.898 49.2671 177.495 49.4868 177.188C50.0288 177.334 50.4829 177.407 50.8491 177.407C51.23 177.407 51.5449 177.349 51.7939 177.231C52.0576 177.114 52.3066 176.917 52.541 176.638C52.9365 176.155 53.3979 175.188 53.9253 173.738L64.7798 147.458C65.0874 146.755 65.959 146.272 67.3945 146.008C67.79 145.935 68.2075 145.898 68.647 145.898C69.5405 145.898 70.0898 146.14 70.2949 146.624L72.4922 152.117C76.7256 162.107 79.1719 167.937 79.8311 169.607L81.8086 174.792C82.2041 175.92 82.5337 176.616 82.7974 176.88C83.061 177.144 83.3467 177.327 83.6543 177.429C83.9619 177.532 84.2769 177.62 84.5991 177.693C84.936 177.751 85.229 177.832 85.478 177.935C86.0347 178.184 86.313 178.564 86.313 179.077C86.313 179.473 86.2031 179.81 85.9834 180.088C85.7051 180.015 85.4561 179.978 85.2363 179.978H74.7554C74.0083 179.978 73.4224 179.89 72.9976 179.714C72.5874 179.524 72.3823 179.238 72.3823 178.857C72.3823 178.198 72.5215 177.715 72.7998 177.407ZM72.8218 165.476L67.0649 151.238L61.418 165.476H72.8218ZM101.936 180.176C101.599 180.059 100.881 180 99.7822 180H90.8174C90.0557 180 89.4478 179.883 88.9937 179.648C88.5396 179.399 88.3125 178.953 88.3125 178.308C88.3125 177.839 88.4224 177.466 88.6421 177.188C89.1987 177.334 89.7334 177.407 90.2461 177.407C90.7588 177.407 91.1616 177.356 91.4546 177.253C91.7476 177.136 92.0039 176.938 92.2236 176.66C92.6631 176.074 92.8828 175.1 92.8828 173.738V151.26C92.8389 150.234 92.502 149.583 91.8721 149.304C91.6816 149.216 91.418 149.136 91.0811 149.062C90.7588 148.989 90.4365 148.916 90.1143 148.843C89.8066 148.755 89.543 148.652 89.3232 148.535C88.8838 148.301 88.6641 147.993 88.6641 147.612C88.6641 146.924 88.7812 146.433 89.0156 146.14C89.3525 146.257 90.0776 146.316 91.1909 146.316H94.0474L101.76 146.096L102.705 146.074C107.216 146.074 110.593 146.88 112.834 148.491C115.075 150.088 116.196 152.344 116.196 155.259C116.196 157.441 115.485 159.448 114.064 161.279C112.482 163.315 110.3 164.692 107.517 165.41C108.278 165.938 109.143 166.904 110.109 168.311L112.438 171.716C114.621 174.895 116.43 176.484 117.866 176.484C118.408 176.484 118.818 176.433 119.096 176.331L119.646 176.111C119.763 176.067 119.895 176.045 120.041 176.045C120.188 176.045 120.341 176.162 120.502 176.396C120.664 176.616 120.744 176.873 120.744 177.166C120.744 177.458 120.62 177.81 120.371 178.22C120.122 178.616 119.77 178.975 119.316 179.297C118.291 180.044 117.17 180.417 115.954 180.417C114.738 180.417 113.735 180.212 112.944 179.802C112.167 179.392 111.45 178.857 110.791 178.198C110.146 177.524 109.553 176.763 109.011 175.913C108.483 175.063 107.985 174.192 107.517 173.298L106.22 170.684C105.297 168.779 104.558 167.556 104.001 167.014C103.459 166.458 102.961 166.179 102.507 166.179H100.288C99.9214 166.179 99.7383 165.916 99.7383 165.388C99.7383 164.656 100.017 164.084 100.573 163.674C100.764 163.542 101.335 163.469 102.287 163.455C103.239 163.425 104.309 163.22 105.495 162.839C106.696 162.458 107.685 161.938 108.461 161.279C109.97 159.976 110.725 158.145 110.725 155.786C110.725 153.809 110.065 152.19 108.747 150.93C107.253 149.509 105.173 148.784 102.507 148.755C100.749 148.755 99.5771 149.019 98.9912 149.546C98.4053 150.044 98.0977 150.989 98.0684 152.38V174.814C98.0684 175.972 98.3906 176.704 99.0352 177.012C99.2402 177.1 99.5112 177.18 99.8481 177.253C100.185 177.327 100.507 177.407 100.815 177.495C101.137 177.568 101.408 177.664 101.628 177.781C102.067 178.015 102.287 178.33 102.287 178.726C102.287 179.399 102.17 179.883 101.936 180.176ZM144.079 177.407C144.694 177.51 145.156 177.561 145.463 177.561C145.771 177.561 146.071 177.532 146.364 177.473C146.672 177.4 146.943 177.29 147.177 177.144C147.705 176.821 147.968 176.316 147.968 175.627C147.968 175.056 147.792 174.419 147.441 173.716L145.375 168.596H131.467L129.006 174.836C128.771 175.408 128.654 175.825 128.654 176.089C128.654 176.338 128.691 176.528 128.764 176.66C128.852 176.777 128.977 176.88 129.138 176.968C129.313 177.056 129.526 177.129 129.775 177.188L130.676 177.429C131.643 177.59 132.265 177.737 132.543 177.869C133.115 178.147 133.4 178.557 133.4 179.099C133.4 179.495 133.291 179.832 133.071 180.11C132.792 180.037 132.536 180 132.302 180H123.359C121.411 180 120.437 179.465 120.437 178.396C120.437 177.898 120.546 177.495 120.766 177.188C121.308 177.334 121.762 177.407 122.128 177.407C122.509 177.407 122.824 177.349 123.073 177.231C123.337 177.114 123.586 176.917 123.82 176.638C124.216 176.155 124.677 175.188 125.205 173.738L136.059 147.458C136.367 146.755 137.238 146.272 138.674 146.008C139.069 145.935 139.487 145.898 139.926 145.898C140.82 145.898 141.369 146.14 141.574 146.624L143.771 152.117C148.005 162.107 150.451 167.937 151.11 169.607L153.088 174.792C153.483 175.92 153.813 176.616 154.077 176.88C154.34 177.144 154.626 177.327 154.934 177.429C155.241 177.532 155.556 177.62 155.878 177.693C156.215 177.751 156.508 177.832 156.757 177.935C157.314 178.184 157.592 178.564 157.592 179.077C157.592 179.473 157.482 179.81 157.263 180.088C156.984 180.015 156.735 179.978 156.516 179.978H146.035C145.288 179.978 144.702 179.89 144.277 179.714C143.867 179.524 143.662 179.238 143.662 178.857C143.662 178.198 143.801 177.715 144.079 177.407ZM144.101 165.476L138.344 151.238L132.697 165.476H144.101ZM173.457 180.22L167.194 179.978H161.525C160.764 179.978 160.126 179.854 159.614 179.604C159.101 179.341 158.845 179.019 158.845 178.638C158.845 177.935 158.955 177.444 159.174 177.166C159.702 177.312 160.236 177.385 160.778 177.385C161.32 177.385 161.774 177.349 162.141 177.275C162.521 177.202 162.858 177.048 163.151 176.814C163.825 176.287 164.162 175.371 164.162 174.067V151.677C164.162 150.315 163.312 149.465 161.613 149.128C160.559 148.909 159.87 148.674 159.548 148.425C159.24 148.162 159.086 147.876 159.086 147.568C159.086 146.895 159.204 146.44 159.438 146.206C159.702 146.279 159.943 146.316 160.163 146.316C160.163 146.316 162.382 146.316 166.821 146.316C167.158 146.316 167.604 146.301 168.161 146.272C168.161 146.272 168.784 146.235 170.029 146.162C171.86 146.074 173.735 146.03 175.654 146.03C177.587 146.03 179.462 146.265 181.279 146.733C183.095 147.188 184.663 147.81 185.981 148.601C187.314 149.392 188.42 150.315 189.299 151.37C190.192 152.41 190.91 153.516 191.452 154.688C192.419 156.841 192.902 159.258 192.902 161.938C192.902 166.802 191.643 170.845 189.123 174.067C187.146 176.602 184.238 178.389 180.4 179.429C178.408 179.956 176.093 180.22 173.457 180.22ZM169.348 174.705C169.348 175.803 169.692 176.514 170.38 176.836C170.966 177.1 172.365 177.231 174.577 177.231C176.804 177.231 178.781 176.865 180.51 176.133C182.238 175.4 183.615 174.412 184.641 173.167C186.486 170.925 187.409 167.769 187.409 163.696C187.409 156.709 184.941 152.146 180.004 150.007C178.217 149.231 176.013 148.843 173.391 148.843C171.647 148.843 170.585 149.019 170.205 149.37C169.824 149.707 169.582 150.132 169.479 150.645C169.392 151.143 169.348 151.816 169.348 152.666V174.705ZM211.25 180.176C210.913 180.059 210.188 180 209.074 180H199.912C199.15 180 198.542 179.883 198.088 179.648C197.634 179.399 197.407 178.953 197.407 178.308C197.407 177.839 197.517 177.466 197.736 177.188C198.322 177.334 198.857 177.407 199.34 177.407C199.838 177.407 200.227 177.356 200.505 177.253C200.798 177.151 201.047 176.968 201.252 176.704C201.706 176.147 201.948 175.232 201.977 173.958V151.501C201.977 150.344 201.655 149.619 201.01 149.326C200.805 149.224 200.527 149.136 200.175 149.062C199.824 148.989 199.472 148.916 199.121 148.843C198.784 148.755 198.498 148.652 198.264 148.535C197.795 148.301 197.561 147.905 197.561 147.349C197.561 146.807 197.67 146.404 197.89 146.14C198.227 146.257 198.952 146.316 200.065 146.316H209.008C209.77 146.316 210.378 146.44 210.832 146.689C211.301 146.924 211.535 147.363 211.535 148.008C211.535 148.491 211.418 148.865 211.184 149.128C210.627 148.982 210.019 148.909 209.36 148.909C207.939 148.909 207.207 150.066 207.163 152.38V174.814C207.163 175.972 207.485 176.704 208.129 177.012C208.334 177.1 208.613 177.18 208.964 177.253C209.316 177.327 209.66 177.407 209.997 177.495C210.349 177.568 210.642 177.664 210.876 177.781C211.359 178.03 211.601 178.425 211.601 178.967C211.601 179.48 211.484 179.883 211.25 180.176ZM235.332 155.588C235.332 152.234 234.138 150.132 231.75 149.282C230.93 148.989 229.97 148.843 228.872 148.843C227.773 148.843 226.828 148.967 226.037 149.216C225.246 149.465 224.587 149.802 224.06 150.227C222.99 151.091 222.456 152.234 222.456 153.655C222.456 155.808 224.038 157.646 227.202 159.17L229.948 160.466C231.281 161.082 232.563 161.711 233.793 162.356C235.039 162.986 236.137 163.711 237.089 164.531C239.184 166.318 240.231 168.53 240.231 171.167C240.231 173.994 239.001 176.272 236.54 178C234.24 179.612 231.354 180.417 227.883 180.417C225.129 180.417 222.697 179.985 220.588 179.121C219.035 178.506 217.929 177.634 217.27 176.506C216.933 175.935 216.765 175.239 216.765 174.419C216.765 172.778 217.175 171.248 217.995 169.827C218.273 169.49 218.654 169.321 219.138 169.321C220.075 169.321 220.617 169.6 220.764 170.156C220.954 172.69 221.73 174.536 223.093 175.693C224.47 176.851 226.389 177.429 228.85 177.429C231.677 177.429 233.574 176.506 234.541 174.661C234.877 174.016 235.046 173.262 235.046 172.397C235.046 171.519 234.812 170.735 234.343 170.046C233.874 169.358 233.251 168.721 232.475 168.135C231.289 167.256 229.714 166.406 227.751 165.586C225.803 164.766 224.279 164.048 223.181 163.433C222.097 162.817 221.137 162.1 220.302 161.279C218.486 159.492 217.578 157.288 217.578 154.666C217.578 151.985 218.728 149.839 221.027 148.228C223.239 146.675 226.096 145.898 229.597 145.898C234.035 145.898 236.936 146.814 238.298 148.645C238.796 149.304 239.045 150.168 239.045 151.238C239.045 152.307 238.942 153.237 238.737 154.028C238.547 154.819 238.356 155.332 238.166 155.566C237.844 155.962 237.287 156.16 236.496 156.16C235.72 156.16 235.332 155.969 235.332 155.588ZM269.609 170.222C270.004 169.885 270.422 169.717 270.861 169.717C271.535 169.717 271.923 169.812 272.026 170.002C272.597 171.145 272.883 173.035 272.883 175.671C272.883 177.502 272.678 178.828 272.268 179.648C272.136 179.883 271.997 180 271.85 180H247.592C245.849 180 244.978 179.48 244.978 178.44C244.978 177.883 245.095 177.458 245.329 177.166C245.827 177.312 246.311 177.385 246.779 177.385C247.248 177.385 247.651 177.349 247.988 177.275C248.325 177.202 248.64 177.048 248.933 176.814C249.636 176.272 249.987 175.356 249.987 174.067V151.809C249.987 150.535 249.475 149.722 248.449 149.37C248.156 149.268 247.849 149.18 247.526 149.106C247.219 149.019 246.918 148.938 246.625 148.865C246.347 148.777 246.098 148.682 245.878 148.579C245.38 148.315 245.131 147.957 245.131 147.502C245.131 146.902 245.249 146.47 245.483 146.206C245.747 146.279 246.01 146.316 246.274 146.316H268.752C270.1 146.316 270.942 146.44 271.279 146.689C271.894 147.129 272.202 148.096 272.202 149.59C272.202 151.025 272.077 152.197 271.828 153.105C271.594 154.014 271.425 154.556 271.323 154.731C271.176 154.995 270.891 155.127 270.466 155.127C269.851 155.127 269.426 155.054 269.191 154.907C268.972 154.746 268.854 154.629 268.84 154.556C268.649 152.461 268.32 151.128 267.851 150.557C267.382 149.971 266.826 149.575 266.181 149.37C265.551 149.15 264.724 149.041 263.698 149.041H258.798C257.246 149.041 256.293 149.194 255.942 149.502C255.605 149.81 255.393 150.168 255.305 150.579C255.217 150.974 255.173 151.487 255.173 152.117V161.477L256.469 161.499C259.707 161.499 262.709 161.213 265.478 160.642C265.683 160.745 265.866 161.038 266.027 161.521C266.188 161.99 266.269 162.458 266.269 162.927C266.269 163.718 266.137 164.407 265.874 164.993C264.907 165.081 263.793 165.125 262.534 165.125C261.274 165.125 258.82 164.919 255.173 164.509V174.419C255.173 175.518 255.466 176.257 256.052 176.638C256.55 176.96 257.443 177.122 258.732 177.122L262.05 177.034C265.258 176.917 267.346 176.47 268.312 175.693C268.854 175.254 269.213 174.675 269.389 173.958C269.565 173.24 269.653 172.522 269.653 171.804C269.653 171.072 269.638 170.544 269.609 170.222Z" fill="white"/>
<path d="M93.625 203.781C93.7812 204.224 93.8594 204.608 93.8594 204.934C93.8594 205.259 93.8073 205.487 93.7031 205.617C93.612 205.747 93.4883 205.845 93.332 205.91C93.1758 205.975 92.9935 206.027 92.7852 206.066C92.5768 206.105 92.3229 206.21 92.0234 206.379C91.4505 206.704 91.1641 207.564 91.1641 208.957V213.508C90.9948 213.859 90.6367 214.315 90.0898 214.875C89.543 215.435 88.8008 215.975 87.8633 216.496C85.5716 217.772 83.0521 218.41 80.3047 218.41C77.5703 218.41 75.3047 218.052 73.5078 217.336C71.7109 216.62 70.207 215.624 68.9961 214.348C66.5612 211.783 65.3438 208.365 65.3438 204.094C65.3438 201.464 65.7604 199.126 66.5938 197.082C67.4401 195.038 68.5794 193.326 70.0117 191.945C72.9414 189.107 76.6133 187.688 81.0273 187.688C84.556 187.688 87.1927 188.326 88.9375 189.602C90.3177 190.617 91.0078 191.9 91.0078 193.449C91.0078 194.413 90.7279 195.188 90.168 195.773C89.6341 196.333 88.9375 196.613 88.0781 196.613C87.3229 196.613 86.7891 196.516 86.4766 196.32C86.5417 195.904 86.5742 195.389 86.5742 194.777C86.5742 194.165 86.4375 193.573 86.1641 193C85.9036 192.414 85.513 191.952 84.9922 191.613C84.0938 191.014 82.7396 190.715 80.9297 190.715C79.1198 190.715 77.5703 190.949 76.2812 191.418C75.0052 191.887 73.9245 192.609 73.0391 193.586C71.2031 195.591 70.2852 198.547 70.2852 202.453C70.2852 211.034 73.944 215.324 81.2617 215.324C82.9935 215.324 84.4844 215.057 85.7344 214.523C86.138 214.354 86.4505 214.165 86.6719 213.957L86.6523 208.371C86.6523 207.434 86.0404 206.789 84.8164 206.438C84.5169 206.359 84.2109 206.288 83.8984 206.223C83.5859 206.158 83.2734 206.092 82.9609 206.027C82.6615 205.949 82.4076 205.852 82.1992 205.734C81.7826 205.526 81.5742 205.181 81.5742 204.699C81.5742 204.204 81.6719 203.846 81.8672 203.625C82.1667 203.729 82.8112 203.781 83.8008 203.781H93.625ZM115.812 215.695C116.359 215.786 116.77 215.832 117.043 215.832C117.316 215.832 117.583 215.806 117.844 215.754C118.117 215.689 118.358 215.591 118.566 215.461C119.035 215.174 119.27 214.725 119.27 214.113C119.27 213.605 119.113 213.039 118.801 212.414L116.965 207.863H104.602L102.414 213.41C102.206 213.918 102.102 214.289 102.102 214.523C102.102 214.745 102.134 214.914 102.199 215.031C102.277 215.135 102.388 215.227 102.531 215.305C102.688 215.383 102.876 215.448 103.098 215.5L103.898 215.715C104.758 215.858 105.311 215.988 105.559 216.105C106.066 216.353 106.32 216.717 106.32 217.199C106.32 217.551 106.223 217.85 106.027 218.098C105.78 218.033 105.552 218 105.344 218H97.3945C95.6628 218 94.7969 217.525 94.7969 216.574C94.7969 216.132 94.8945 215.773 95.0898 215.5C95.5716 215.63 95.9753 215.695 96.3008 215.695C96.6393 215.695 96.9193 215.643 97.1406 215.539C97.375 215.435 97.5964 215.259 97.8047 215.012C98.1562 214.582 98.5664 213.723 99.0352 212.434L108.684 189.074C108.957 188.449 109.732 188.02 111.008 187.785C111.359 187.72 111.73 187.688 112.121 187.688C112.915 187.688 113.404 187.902 113.586 188.332L115.539 193.215C119.302 202.095 121.477 207.277 122.062 208.762L123.82 213.371C124.172 214.374 124.465 214.992 124.699 215.227C124.934 215.461 125.188 215.624 125.461 215.715C125.734 215.806 126.014 215.884 126.301 215.949C126.6 216.001 126.861 216.073 127.082 216.164C127.577 216.385 127.824 216.724 127.824 217.18C127.824 217.531 127.727 217.831 127.531 218.078C127.284 218.013 127.062 217.98 126.867 217.98H117.551C116.887 217.98 116.366 217.902 115.988 217.746C115.624 217.577 115.441 217.323 115.441 216.984C115.441 216.398 115.565 215.969 115.812 215.695ZM115.832 205.09L110.715 192.434L105.695 205.09H115.832ZM150.207 218.156C149.908 218.052 149.263 218 148.273 218H137.102C136.424 218 135.878 217.896 135.461 217.688C135.057 217.466 134.855 217.069 134.855 216.496C134.855 216.092 134.96 215.76 135.168 215.5C135.663 215.63 136.132 215.695 136.574 215.695C137.017 215.695 137.434 215.65 137.824 215.559C138.215 215.467 138.586 215.305 138.938 215.07C139.771 214.536 140.214 213.723 140.266 212.629V190.91H137.727C135.839 190.91 134.602 191.001 134.016 191.184C133.443 191.353 133.007 191.574 132.707 191.848C132.421 192.121 132.186 192.492 132.004 192.961C131.678 193.768 131.424 195.161 131.242 197.141C130.956 197.206 130.695 197.238 130.461 197.238C129.94 197.238 129.608 197.102 129.465 196.828C129.322 196.555 129.224 196.275 129.172 195.988C129.12 195.689 129.081 195.363 129.055 195.012C129.003 194.309 128.977 193.56 128.977 192.766C128.977 190.591 129.146 189.211 129.484 188.625C129.823 188 130.5 187.688 131.516 187.688C131.711 187.688 131.997 187.707 132.375 187.746C132.753 187.785 133.299 187.831 134.016 187.883C135.956 188 138.28 188.059 140.988 188.059H144.289C148.065 188.059 150.591 188 151.867 187.883C153.143 187.753 153.938 187.688 154.25 187.688C154.562 187.688 154.849 187.733 155.109 187.824C155.37 187.915 155.578 188.046 155.734 188.215C155.982 188.501 156.105 188.859 156.105 189.289C156.105 189.94 156.086 190.461 156.047 190.852C156.008 191.242 155.962 191.704 155.91 192.238C155.871 192.772 155.812 193.326 155.734 193.898C155.552 195.253 155.324 196.184 155.051 196.691C154.79 197.056 154.471 197.238 154.094 197.238C153.729 197.238 153.404 197.206 153.117 197.141L153.137 195.91C153.137 194.751 153.072 193.84 152.941 193.176C152.811 192.499 152.538 191.997 152.121 191.672C151.704 191.333 151.105 191.125 150.324 191.047C149.543 190.956 148.501 190.91 147.199 190.91H144.855V213.391C144.855 214.328 145.604 214.979 147.102 215.344C147.466 215.422 147.811 215.493 148.137 215.559C148.475 215.624 148.801 215.695 149.113 215.773C149.426 215.839 149.686 215.923 149.895 216.027C150.311 216.236 150.52 216.587 150.52 217.082C150.52 217.538 150.415 217.896 150.207 218.156ZM180.871 209.309C181.223 209.009 181.594 208.859 181.984 208.859C182.583 208.859 182.928 208.944 183.02 209.113C183.527 210.129 183.781 211.809 183.781 214.152C183.781 215.78 183.599 216.958 183.234 217.688C183.117 217.896 182.993 218 182.863 218H161.301C159.751 218 158.977 217.538 158.977 216.613C158.977 216.118 159.081 215.741 159.289 215.48C159.732 215.611 160.161 215.676 160.578 215.676C160.995 215.676 161.353 215.643 161.652 215.578C161.952 215.513 162.232 215.376 162.492 215.168C163.117 214.686 163.43 213.872 163.43 212.727V192.941C163.43 191.809 162.974 191.086 162.062 190.773C161.802 190.682 161.529 190.604 161.242 190.539C160.969 190.461 160.702 190.389 160.441 190.324C160.194 190.246 159.973 190.161 159.777 190.07C159.335 189.836 159.113 189.517 159.113 189.113C159.113 188.579 159.217 188.195 159.426 187.961C159.66 188.026 159.895 188.059 160.129 188.059H180.109C181.307 188.059 182.056 188.169 182.355 188.391C182.902 188.781 183.176 189.641 183.176 190.969C183.176 192.245 183.065 193.286 182.844 194.094C182.635 194.901 182.486 195.383 182.395 195.539C182.264 195.773 182.01 195.891 181.633 195.891C181.086 195.891 180.708 195.826 180.5 195.695C180.305 195.552 180.201 195.448 180.188 195.383C180.018 193.521 179.725 192.336 179.309 191.828C178.892 191.307 178.397 190.956 177.824 190.773C177.264 190.578 176.529 190.48 175.617 190.48H171.262C169.882 190.48 169.035 190.617 168.723 190.891C168.423 191.164 168.234 191.483 168.156 191.848C168.078 192.199 168.039 192.655 168.039 193.215V201.535L169.191 201.555C172.069 201.555 174.738 201.301 177.199 200.793C177.382 200.884 177.544 201.145 177.688 201.574C177.831 201.991 177.902 202.408 177.902 202.824C177.902 203.527 177.785 204.139 177.551 204.66C176.691 204.738 175.702 204.777 174.582 204.777C173.462 204.777 171.281 204.595 168.039 204.23V213.039C168.039 214.016 168.299 214.673 168.82 215.012C169.263 215.298 170.057 215.441 171.203 215.441L174.152 215.363C177.004 215.259 178.859 214.862 179.719 214.172C180.201 213.781 180.52 213.267 180.676 212.629C180.832 211.991 180.91 211.353 180.91 210.715C180.91 210.064 180.897 209.595 180.871 209.309Z" fill="white"/>
</svg>
