<svg width="250" height="293" viewBox="0 0 250 293" fill="none" xmlns="http://www.w3.org/2000/svg">
<path d="M14.0647 224.32V214.929L25.2194 229.485H28.1293V210.703L35.4042 205.538V235.589L41.709 237.937V200.373L48.0139 196.147V243.572L54.3187 247.798V191.921L56.7436 189.574L64.0185 183V264.232H66.4434V271.745H68.8684V281.136H76.1432V291.466H14.0647V281.136H25.2194V266.58L10.1848 254.841L1.93995 250.145L0 243.572V236.528L1.93995 235.589L5.81986 243.572L28.1293 260.945V250.145L35.4042 252.493V281.136H41.709V260.945L48.0139 268.458V281.136H54.3187V277.849V268.458L44.1339 252.493L23.2794 237.937L14.0647 224.32Z" fill="#F8F8F8"/>
<path d="M235.079 225.32V215.929L223.924 230.485H221.014V211.703L213.739 206.538V236.589L207.434 238.937V201.373L201.129 197.147V244.572L194.824 248.798V192.921L192.4 190.574L185.125 184V265.232H182.7V272.745H180.275V282.136H173V292.466H235.079V282.136H223.924V267.58L238.958 255.841L247.203 251.145L249.143 244.572V237.528L247.203 236.589L243.323 244.572L221.014 261.945V251.145L213.739 253.493V282.136H207.434V261.945L201.129 269.458V282.136H194.824V278.849V269.458L205.009 253.493L225.864 238.937L235.079 225.32Z" fill="#F8F8F8"/>
<path d="M238 140V130.12L228.897 125.18H218.187V101.098C205.08 57.4072 188.277 39.046 162.497 27C201.804 62.7195 201.516 79.3311 210.155 110.361V125.18H203.194V110.361C197.296 81.0788 172.671 52.9344 165.174 47.3771H159.284L165.174 55.4044C183.449 73.7935 189.687 85.98 195.161 110.361V125.18H188.735V110.361C178.866 85.6854 171.742 75.4864 155 66.5191C168.35 83.227 173.624 93.8368 180.703 114.066V125.18H177.49L167.852 130.12V140H238Z" fill="#F8F8F8"/>
<path d="M16 140V130.12L25.1032 125.18H35.8129V101.098C48.9204 57.4072 65.7232 39.046 91.5032 27C52.1956 62.7195 52.4843 79.3311 43.8452 110.361V125.18H50.8065V110.361C56.704 81.0788 81.329 52.9344 88.8258 47.3771H94.7161L88.8258 55.4044C70.5508 73.7935 64.3134 85.98 58.8387 110.361V125.18H65.2645V110.361C75.1337 85.6854 82.2579 75.4864 99 66.5191C85.6496 83.227 80.3764 93.8368 73.2968 114.066V125.18H76.5097L86.1484 130.12V140H16Z" fill="#F8F8F8"/>
<path d="M106 24.4444C117.647 18.2455 121.754 12.4417 126.909 0C130.457 16.9974 135.521 20.8064 146 24.4444C132.426 33.3336 128.731 39.0176 126.909 50C122.94 37.3189 118.954 31.3455 106 24.4444Z" fill="#F8F8F8"/>
<path d="M148.947 8.34582C153.466 6.48296 155.059 4.73887 157.059 1C158.436 6.10792 160.401 7.25254 164.467 8.34582C159.2 11.0171 157.766 12.7252 157.059 16.0255C155.519 12.2147 153.973 10.4197 148.947 8.34582Z" fill="#F8F8F8"/>
<path d="M96.5681 183.055C99.3924 181.89 100.388 180.8 101.638 178.464C102.499 181.656 103.727 182.371 106.268 183.055C102.976 184.724 102.08 185.792 101.638 187.855C100.676 185.473 99.7093 184.351 96.5681 183.055Z" fill="#F8F8F8"/>
<path d="M10.5947 181.102C14.8707 185.719 17.7369 186.888 23.2705 187.701C17.4825 191.504 16.8996 194.337 17.287 199.66C11.6786 194.491 8.92642 193.498 4.49827 194.046C8.59525 190.595 10.171 187.988 10.5947 181.102Z" fill="#F8F8F8"/>
</svg>
